<svg xmlns="http://www.w3.org/2000/svg" viewBox="0 0 151.23 91.03"><defs><style>.cls-1{fill:#1d1d1b;}.cls-1,.cls-2,.cls-3{stroke:#1d1d1b;stroke-miterlimit:10;stroke-width:5px;}.cls-2{fill:none;}.cls-3{fill:#fff;}</style></defs><g id="Layer_2" data-name="Layer 2"><g id="Work_Area" data-name="Work Area"><ellipse class="cls-1" cx="74.16" cy="53.5" rx="27.8" ry="27.5"/><path class="cls-2" d="M2.08,53.22c19-28.61,95.29-66.14,147.26-5.71"/><path class="cls-2" d="M7.91,56.56c24.44-25.17,93.27-60.11,130,11.88"/><path class="cls-2" d="M7.91,64.28C92.56,121.26,133.16,60,133.16,60"/><path class="cls-2" d="M102.21,17.56c6.49-4.21,9.86-7.82,13-16.74"/><path class="cls-2" d="M124.31,27.21c6.5-4.21,9.87-7.82,13-16.74"/><path class="cls-2" d="M114.41,22.22c6.49-4.21,9.87-7.82,13-16.74"/><path class="cls-3" d="M60.17,52.61c.07,2.84.42,5.16,1.17,6.25L50.92,64.28C48,60.6,48.34,52.11,48.34,52.11Z"/><circle class="cls-3" cx="74.16" cy="53.22" r="8.78"/></g></g></svg>